# xmcd
# 
# Track frame offsets:
#     150
#     14230
#     30497
#     41280
#     55870
#     66370
#     82667
#     98312
#     119070
#     134070
#     152760
# 
# Disc length: 2284
# 
# Revision: 6
# Processed by: cddbd v1.5.2PL0 Copyright (c) Steve Scherf et al.
# Submitted via: fre:ac v1.0.31
# 
DISCID=8b08ea0b
DTITLE=Savoy Brown - Make Me Sweat
DYEAR=1988
DGENRE=Blues
TTITLE0=Limousine Boogie {Hey,HeyMama}
TTITLE1=Just For Kicks
TTITLE2=Good Time Lover
TTITLE3=Goin' Down
TTITLE4=Hard Way To Go
TTITLE5=Don't Tell Me It's Over
TTITLE6=Runnin' With A Bad Crowd
TTITLE7=Tell Mama
TTITLE8=Shot In The Head
TTITLE9=Breakin' Up
TTITLE10=On The Prowl
EXTD=
EXTT0=
EXTT1=
EXTT2=
EXTT3=
EXTT4=
EXTT5=
EXTT6=
EXTT7=
EXTT8=
EXTT9=
EXTT10=
PLAYORDER=
